<mxfile host="app.diagrams.net">
  <diagram name="PSA Immo Tool - Carte des appels" id="PSA_CALL_MAP">
    <mxGraphModel>
      <root>
        <mxCell id="0" />
        <mxCell id="1" parent="0" />

        <!-- === LÉGENDE === -->
        <mxCell id="legend" value="Légende :
Vert = Utilisé
Rouge = Orphelin (jamais appelé)" style="rounded=1;fillColor=#ffffff;strokeColor=#000000;fontSize=12;" vertex="1" parent="1">
          <mxGeometry x="20" y="20" width="240" height="60" as="geometry" />
        </mxCell>

        <!-- === PSA KEY CALCULATOR === -->
        <mxCell id="PsaKeyCalculator" value="PsaKeyCalculator.calculateKey" style="rounded=1;fillColor=#b7e1cd;strokeColor=#60a87a;" vertex="1" parent="1">
          <mxGeometry x="320" y="100" width="220" height="40" as="geometry" />
        </mxCell>

        <!-- === UI UPDATER === -->
        <mxCell id="UiUpdater" value="UiUpdater" style="rounded=1;fillColor=#b7e1cd;strokeColor=#60a87a;" vertex="1" parent="1">
          <mxGeometry x="320" y="200" width="160" height="40" as="geometry" />
        </mxCell>

        <!-- === VEHICLE MANAGER === -->
        <mxCell id="VehicleManager" value="VehicleManager" style="rounded=1;fillColor=#b7e1cd;strokeColor=#60a87a;" vertex="1" parent="1">
          <mxGeometry x="320" y="300" width="180" height="40" as="geometry" />
        </mxCell>

        <!-- === PERMISSION UTILS (ORPHELIN) === -->
        <mxCell id="PermissionUtils" value="PermissionUtils (orphelin)" style="rounded=1;fillColor=#f4c7c3;strokeColor=#b85450;" vertex="1" parent="1">
          <mxGeometry x="40" y="420" width="220" height="40" as="geometry" />
        </mxCell>

        <!-- === LOG EXPORTER (ORPHELIN) === -->
        <mxCell id="LogExporter" value="LogExporter (orphelin)" style="rounded=1;fillColor=#f4c7c3;strokeColor=#b85450;" vertex="1" parent="1">
          <mxGeometry x="40" y="500" width="220" height="40" as="geometry" />
        </mxCell>

        <!-- === GENERIC CAN DEMO MODULE (ORPHELIN) === -->
        <mxCell id="GenericCanDemoModule" value="GenericCanDemoModule (orphelin)" style="rounded=1;fillColor=#f4c7c3;strokeColor=#b85450;" vertex="1" parent="1">
          <mxGeometry x="40" y="580" width="260" height="40" as="geometry" />
        </mxCell>

        <!-- === UPDATE MANAGER (ORPHELIN) === -->
        <mxCell id="UpdateManager" value="UpdateManager (orphelin)" style="rounded=1;fillColor=#f4c7c3;strokeColor=#b85450;" vertex="1" parent="1">
          <mxGeometry x="40" y="660" width="220" height="40" as="geometry" />
        </mxCell>

        <!-- === REPORT GENERATOR === -->
        <mxCell id="ReportGenerator" value="ReportGenerator" style="rounded=1;fillColor=#b7e1cd;strokeColor=#60a87a;" vertex="1" parent="1">
          <mxGeometry x="320" y="400" width="200" height="40" as="geometry" />
        </mxCell>

        <!-- === DIAGNOSTIC RECORDER (ORPHELIN) === -->
        <mxCell id="DiagnosticRecorder" value="DiagnosticRecorder (orphelin)" style="rounded=1;fillColor=#f4c7c3;strokeColor=#b85450;" vertex="1" parent="1">
          <mxGeometry x="40" y="740" width="260" height="40" as="geometry" />
        </mxCell>

        <!-- === FRAME INTERPRETER (ORPHELIN) === -->
        <mxCell id="FrameInterpreter" value="FrameInterpreter (orphelin)" style="rounded=1;fillColor=#f4c7c3;strokeColor=#b85450;" vertex="1" parent="1">
          <mxGeometry x="40" y="820" width="240" height="40" as="geometry" />
        </mxCell>

        <!-- === CONTEXT PROVIDER (ORPHELIN) === -->
        <mxCell id="ContextProvider" value="ContextProvider (orphelin)" style="rounded=1;fillColor=#f4c7c3;strokeColor=#b85450;" vertex="1" parent="1">
          <mxGeometry x="40" y="900" width="240" height="40" as="geometry" />
        </mxCell>

        <!-- === LOCALE UTILS === -->
        <mxCell id="LocaleUtils" value="LocaleUtils" style="rounded=1;fillColor=#b7e1cd;strokeColor=#60a87a;" vertex="1" parent="1">
          <mxGeometry x="320" y="500" width="180" height="40" as="geometry" />
        </mxCell>

        <!-- === MAIN ACTIVITY === -->
        <mxCell id="MainActivity" value="MainActivity" style="rounded=1;fillColor=#b7e1cd;strokeColor=#60a87a;" vertex="1" parent="1">
          <mxGeometry x="600" y="300" width="160" height="40" as="geometry" />
        </mxCell>

        <!-- === DIAGNOSTICS FRAGMENT === -->
        <mxCell id="DiagnosticsFragment" value="DiagnosticsFragment" style="rounded=1;fillColor=#b7e1cd;strokeColor=#60a87a;" vertex="1" parent="1">
          <mxGeometry x="600" y="200" width="200" height="40" as="geometry" />
        </mxCell>

        <!-- === MODULES === -->
        <mxCell id="CanBusModule" value="CanBusModule" style="rounded=1;fillColor=#b7e1cd;strokeColor=#60a87a;" vertex="1" parent="1">
          <mxGeometry x="600" y="100" width="180" height="40" as="geometry" />
        </mxCell>

        <mxCell id="Obd2UsbModule" value="Obd2UsbModule" style="rounded=1;fillColor=#b7e1cd;strokeColor=#60a87a;" vertex="1" parent="1">
          <mxGeometry x="880" y="100" width="180" height="40" as="geometry" />
        </mxCell>

        <mxCell id="Obd2BluetoothModule" value="Obd2BluetoothModule" style="rounded=1;fillColor=#b7e1cd;strokeColor=#60a87a;" vertex="1" parent="1">
          <mxGeometry x="880" y="200" width="200" height="40" as="geometry" />
        </mxCell>

        <mxCell id="KLineUsbModule" value="KLineUsbModule" style="rounded=1;fillColor=#b7e1cd;strokeColor=#60a87a;" vertex="1" parent="1">
          <mxGeometry x="880" y="300" width="180" height="40" as="geometry" />
        </mxCell>

        <!-- === LIENS === -->
        <mxCell id="edge1" edge="1" parent="1" source="CanBusModule" target="PsaKeyCalculator" />
        <mxCell id="edge2" edge="1" parent="1" source="Obd2UsbModule" target="PsaKeyCalculator" />
        <mxCell id="edge3" edge="1" parent="1" source="Obd2BluetoothModule" target="PsaKeyCalculator" />
        <mxCell id="edge4" edge="1" parent="1" source="DiagnosticsFragment" target="UiUpdater" />
        <mxCell id="edge5" edge="1" parent="1" source="MainActivity" target="UiUpdater" />
        <mxCell id="edge6" edge="1" parent="1" source="MainActivity" target="VehicleManager" />
        <mxCell id="edge7" edge="1" parent="1" source="VehicleEditorActivity" target="VehicleManager" />
        <mxCell id="edge8" edge="1" parent="1" source="ReportGenerator" target="VehicleManager" />
        <mxCell id="edge9" edge="1" parent="1" source="SettingsFragment" target="LocaleUtils" />
      </root>
    </mxGraphModel>
  </diagram>
</mxfile>
